<?xml version="1.0" encoding="utf-8"?>
<!-- Svg Vector Icons : http://www.onlinewebfonts.com/icon -->
<!DOCTYPE svg PUBLIC "-//W3C//DTD SVG 1.1//EN" "http://www.w3.org/Graphics/SVG/1.1/DTD/svg11.dtd">
<svg version="1.1" xmlns="http://www.w3.org/2000/svg" xmlns:xlink="http://www.w3.org/1999/xlink" x="0px" y="0px" viewBox="0 0 256 256" enable-background="new 0 0 256 256" xml:space="preserve">
<metadata> Svg Vector Icons : http://www.onlinewebfonts.com/icon </metadata>
<g><g><g><path fill="#000000" d="M139.8,39.9c-17.3,2.4-32.9,11.9-42,25.5c-1.3,2.1-2.8,4.2-3.1,4.9c-0.5,0.8-1.6,1.4-3.4,2c-24.5,7.6-43.2,27.5-49.5,52.5c-0.7,2.9-1.6,5.3-1.9,5.4c-0.3,0.2-2.4,1.2-4.7,2.3c-16,7.3-25.9,24-25,41.7c0.6,11.4,4.8,21,13,29.1c5.9,5.9,12.1,9.5,20.5,11.9l3.5,1l73.6,0.1c53.7,0.1,74.8,0,77.9-0.4c11.8-1.5,22.9-6.9,31.4-15.3c15.4-15.3,20.3-38.7,12.2-58.7l-1.2-2.8l1.2-3c0.6-1.7,1.8-5,2.4-7.4c1-3.9,1.2-5.4,1.2-11.8c0-6.7-0.1-7.7-1.2-11.4c-2.3-7.5-5.7-13.1-11.2-18.4c-4-3.7-6.6-5.5-11.4-7.8c-4.2-1.9-9.8-3.4-14.8-3.9l-3.3-0.3l-2-4c-7.8-15.4-24.1-27.2-42.1-30.8C155.1,39.6,144.2,39.3,139.8,39.9z M158,50.3c14.8,2.8,28,12.4,35.1,25.5c0.9,1.7,2,4,2.4,5.2c0.5,1.2,1.4,2.7,2.2,3.3c1.2,1.1,1.8,1.2,6,1.2c9.3,0,16.5,2.9,23,9.1c8.1,7.7,11,18.3,8.4,30.8l-0.7,3.2l-5-4.8c-3-3-6.5-5.8-8.9-7.3c-11.6-7.1-25.5-9.8-38.2-7.2c-1.7,0.4-3,0.6-3,0.6c0,0-1-1.8-2.3-4c-10.7-18.5-28.8-31.4-49.9-35.6c-3.1-0.6-7.9-1.1-12.6-1.3l-7.6-0.3l4.1-4.2C123.4,52.2,140.5,47,158,50.3z M124.5,79.8c19.5,3.3,36.6,16.2,46.1,34.8c1.4,2.8,3,5.3,3.5,5.5c1.3,0.7,3.4,0.6,7.2-0.6c3-0.9,4.7-1.1,10.7-1.1s7.7,0.2,11,1.1c16.4,4.5,28.4,17.1,32.2,34c1,4.4,1,13.2,0,18c-1.8,8.5-5.6,15.2-12.3,21.9c-6.7,6.7-13.4,10.4-22.1,12.3c-3.7,0.8-8,0.8-77.7,0.8c-70.7,0-73.9,0-77-0.9c-15.9-4.2-26.2-17.4-26.2-33.5c0-5.9,0.9-10,3.4-15c4.2-8.7,12-15.3,21.4-18c3.3-1,4.8-2.3,5.1-4.7c1.7-11.4,5.9-21.7,12.5-30.4c3.2-4.3,10.7-11.3,14.9-14.3c9.1-6.1,20.1-10,30.9-11C111.6,78.6,120.1,79.1,124.5,79.8z"/></g></g></g>
</svg>