<svg width="17" height="12" viewBox="0 0 17 12" fill="none" xmlns="http://www.w3.org/2000/svg">
<g id="&#240;&#159;&#166;&#134; icon &#34;cloud&#34;">
<path id="Vector" d="M0 7.919C0 7.00784 0.285231 6.19969 0.855693 5.48661C1.42615 4.77353 2.14715 4.314 3.02662 4.11592C3.27223 3.03046 3.83477 2.14307 4.69839 1.44584C5.562 0.74861 6.56031 0.399994 7.67746 0.399994C8.77085 0.399994 9.74539 0.740686 10.6011 1.41415C11.4568 2.08761 12.0114 2.95915 12.2649 4.02084H12.5264C13.2395 4.02084 13.8971 4.19515 14.4992 4.53584C15.1014 4.87653 15.5847 5.35192 15.9333 5.95407C16.2819 6.55623 16.4642 7.20592 16.4642 7.919C16.4642 8.61623 16.2978 9.26592 15.965 9.86015C15.6322 10.4544 15.1727 10.9298 14.5943 11.2863C14.0159 11.6428 13.3742 11.833 12.6849 11.8568H3.80308C2.74139 11.8092 1.84608 11.4052 1.10923 10.6445C0.372385 9.89184 0 8.98069 0 7.919ZM1.35485 7.919C1.35485 8.6083 1.59254 9.20254 2.06792 9.70961C2.54331 10.2167 3.12169 10.4861 3.80308 10.5257H12.669C13.3504 10.494 13.9288 10.2167 14.4042 9.70961C14.8875 9.20254 15.1252 8.60038 15.1252 7.919C15.1252 7.22177 14.8637 6.62753 14.3487 6.12046C13.8337 5.61338 13.2236 5.35984 12.5105 5.35984H11.2428C11.1557 5.35984 11.1082 5.3123 11.1082 5.21723L11.0527 4.76561C10.9655 3.90992 10.5932 3.18892 9.94346 2.61053C9.29377 2.03215 8.54108 1.73899 7.67746 1.73899C6.81385 1.73899 6.05323 2.03215 5.41939 2.61053C4.77762 3.18892 4.41316 3.90992 4.33392 4.76561L4.27054 5.21723C4.27054 5.3123 4.21508 5.35984 4.11208 5.35984H3.69216C3.02662 5.43907 2.472 5.7243 2.02831 6.20761C1.58462 6.69092 1.35485 7.26138 1.35485 7.919Z" fill="#F4F4F4"/>
</g>
</svg>
