<svg width="17" height="10" viewBox="0 0 17 10" fill="none" xmlns="http://www.w3.org/2000/svg">
<g id="&#240;&#159;&#166;&#134; icon &#34;strong wind&#34;">
<path id="Vector" d="M0 6.34799C0 6.51402 0.0622596 6.65929 0.193696 6.77689C0.30438 6.90833 0.449652 6.97059 0.629512 6.97059H10.7916C10.9922 6.97059 11.1583 7.03977 11.2966 7.17812C11.435 7.31647 11.5042 7.48942 11.5042 7.69003C11.5042 7.89065 11.435 8.05667 11.2966 8.18811C11.1583 8.31954 10.9922 8.38872 10.7847 8.38872C10.5841 8.38872 10.4112 8.31954 10.2797 8.18811C10.169 8.06359 10.0307 8.00825 9.86466 8.00825C9.69172 8.00825 9.54644 8.07051 9.42193 8.18811C9.29741 8.30571 9.23515 8.45098 9.23515 8.61009C9.23515 8.78303 9.29741 8.9283 9.42884 9.0459C9.81624 9.42638 10.2728 9.62007 10.7847 9.62007C11.3243 9.62007 11.7878 9.4333 12.1752 9.05974C12.5626 8.68618 12.7493 8.23653 12.7493 7.69695C12.7493 7.15737 12.5557 6.7008 12.1683 6.31341C11.7809 5.92601 11.3174 5.73232 10.7847 5.73232H0.629512C0.456569 5.73232 0.311297 5.79458 0.186778 5.91218C0.0622594 6.02978 0 6.17505 0 6.34799ZM0 4.07898C0 4.23809 0.0622596 4.37645 0.193696 4.50097C0.311297 4.62548 0.456569 4.68083 0.629512 4.68083H14.4926C15.0322 4.68083 15.4957 4.49405 15.8831 4.11357C16.2705 3.74002 16.4642 3.28345 16.4642 2.75078C16.4642 2.21812 16.2705 1.75463 15.8831 1.37416C15.4957 0.993684 15.0322 0.799988 14.4926 0.799988C13.9599 0.799988 13.5103 0.986766 13.1437 1.35341C13.0191 1.46409 12.9569 1.61628 12.9569 1.81689C12.9569 1.99675 13.0191 2.14202 13.1367 2.25271C13.2543 2.36339 13.3996 2.41873 13.5726 2.41873C13.7386 2.41873 13.8839 2.36339 14.0084 2.25271C14.1398 2.10744 14.2989 2.03826 14.4926 2.03826C14.6932 2.03826 14.8593 2.10744 14.9976 2.24579C15.136 2.38414 15.2051 2.55017 15.2051 2.75078C15.2051 2.9514 15.136 3.11742 14.9976 3.24886C14.8593 3.3803 14.6932 3.44947 14.4926 3.44947H0.629512C0.456569 3.44947 0.311297 3.51173 0.186778 3.62933C0.0622594 3.76077 0 3.90604 0 4.07898Z" fill="#F4F4F4"/>
</g>
</svg>
