<svg width="9" height="13" viewBox="0 0 9 13" fill="none" xmlns="http://www.w3.org/2000/svg">
<g id="&#240;&#159;&#166;&#134; icon &#34;raindrops&#34;">
<path id="Vector" d="M0 5.4314C0 5.13743 0.146985 4.76432 0.429648 4.28944C0.712312 3.81457 0.994975 3.41884 1.25502 3.11356C1.32286 3.03442 1.41332 2.92135 1.51508 2.79698C1.61683 2.67261 1.68467 2.60477 1.69598 2.59346L2.11432 3.07964C2.4309 3.43014 2.71357 3.82587 2.97362 4.28944C3.23367 4.75301 3.36935 5.12612 3.36935 5.4314C3.36935 5.89497 3.21106 6.302 2.88317 6.62989C2.56658 6.95778 2.17085 7.12738 1.69598 7.12738C1.23241 7.12738 0.825377 6.95778 0.497487 6.62989C0.169598 6.2907 0 5.89497 0 5.4314ZM3.52764 10.1236C3.52764 9.79572 3.61809 9.42261 3.799 8.98165C3.9799 8.552 4.20603 8.14497 4.47739 7.78316C4.99749 7.09346 5.48367 6.51683 5.95854 6.05326C6.00377 6.01934 6.10553 5.92889 6.25251 5.7819L6.53518 6.05326C6.97613 6.4716 7.47362 7.04824 8.02764 7.77185C8.32161 8.15628 8.54774 8.56331 8.72864 8.99296C8.90955 9.42261 9 9.79572 9 10.1236C9 10.9038 8.73995 11.5482 8.20854 12.0796C7.67714 12.6111 7.02136 12.8711 6.25251 12.8711C5.48367 12.8711 4.8392 12.5997 4.30779 12.0683C3.77638 11.5369 3.52764 10.8811 3.52764 10.1236ZM5.24623 2.3221C5.24623 1.83592 5.61935 1.19145 6.37688 0.399994L6.65955 0.716577C6.87437 0.965321 7.06658 1.23668 7.23618 1.55326C7.40578 1.85854 7.49623 2.11859 7.49623 2.3221C7.49623 2.63869 7.38317 2.88743 7.16834 3.10226C6.95352 3.30577 6.69347 3.41884 6.37688 3.41884C6.049 3.41884 5.77764 3.31708 5.56281 3.10226C5.3593 2.88743 5.24623 2.62738 5.24623 2.3221Z" fill="#F4F4F4"/>
</g>
</svg>
