<?xml version="1.0" encoding="utf-8"?>
<!-- Svg Vector Icons : http://www.onlinewebfonts.com/icon -->
<!DOCTYPE svg PUBLIC "-//W3C//DTD SVG 1.1//EN" "http://www.w3.org/Graphics/SVG/1.1/DTD/svg11.dtd">
<svg version="1.1" xmlns="http://www.w3.org/2000/svg" xmlns:xlink="http://www.w3.org/1999/xlink" x="0px" y="0px" viewBox="0 0 256 256" enable-background="new 0 0 256 256" xml:space="preserve">
<metadata> Svg Vector Icons : http://www.onlinewebfonts.com/icon </metadata>
<g><g><path fill="#000000" d="M237.7,138.1h-22c-4.6,0-8.3-3.7-8.3-8.3s3.7-8.3,8.3-8.3h22c4.6,0,8.3,3.7,8.3,8.3S242.3,138.1,237.7,138.1z M207,95.7c-3.3,3.2-8.5,3.2-11.7,0c-3.3-3.2-3.3-8.5,0-11.7l14.5-14.8c3.3-3.2,8.5-3.2,11.7,0c3.2,3.2,3.2,8.5,0,11.7L207,95.7z M184.4,156.3c0.9,3.6,1.4,7.3,1.4,11.1c0,25.2-20.4,45.7-45.7,45.7c-0.1,0-0.1,0-0.2,0v0H55.2v-0.2c-0.8,0-1.6,0.1-2.4,0.1C29.2,213,10,193.9,10,170.2c0-20.7,14.7-38,34.2-42c7.9-18.9,26.6-32.1,48.4-32.1c13.9,0,26.6,5.4,36,14.3c6.4-10.8,18.1-18.1,31.5-18.1c20.2,0,36.6,16.4,36.6,36.6C196.7,139.8,191.9,149.6,184.4,156.3z M147.7,195.3c12.5-3.7,21.6-15.2,21.6-28.8c0-16.6-13.5-30.1-30.1-30.1c-4.1,0-8,0.8-11.6,2.3c-4.4-15.1-18.2-26.1-34.7-26.1c-18.3,0-33.4,13.6-35.8,31.3c-1.3-0.2-2.7-0.3-4.1-0.3c-14.6,0-26.5,11.8-26.5,26.5c0,14.6,11.8,26.5,26.5,26.5c0.7,0,1.3,0,2-0.1h83.5c0.2,0,0.4,0,0.6,0c0.1,0,0.3,0,0.4,0 M160.1,105.3c-10.6,0-19.5,6.9-22.5,16.5c-0.4,1.1,0,0.6,0.2,0c1.3,0,17.7-1.3,31.7,10.9c5.5,4.8,9.1,10.9,9.2,10.8c4.7-5.8,5.1-9.1,5.1-14.6C183.7,115.9,173.2,105.3,160.1,105.3z M137.8,121.8c-0.1,0-0.1,0-0.1,0C138.3,120.8,138.1,121.3,137.8,121.8z M160.9,81.5c-4.6,0-8.3-3.7-8.3-8.3v-22c0-4.6,3.7-8.3,8.3-8.3c4.6,0,8.3,3.7,8.3,8.3v22C169.2,77.8,165.5,81.5,160.9,81.5z M114.9,95.7l-14.5-14.8c-3.2-3.2-3.2-8.5,0-11.7c3.2-3.2,8.5-3.2,11.7,0l14.5,14.8c3.2,3.2,3.2,8.5,0,11.7C123.4,98.9,118.1,98.9,114.9,95.7z M207,164.2l14.5,14.8c3.2,3.2,3.2,8.5,0,11.7c-3.3,3.2-8.5,3.2-11.7,0l-14.5-14.8c-3.3-3.2-3.3-8.5,0-11.7C198.5,161,203.7,161,207,164.2z"/></g></g>
</svg>