<?xml version="1.0" encoding="utf-8"?>
<!-- Svg Vector Icons : http://www.onlinewebfonts.com/icon -->
<!DOCTYPE svg PUBLIC "-//W3C//DTD SVG 1.1//EN" "http://www.w3.org/Graphics/SVG/1.1/DTD/svg11.dtd">
<svg version="1.1" xmlns="http://www.w3.org/2000/svg" xmlns:xlink="http://www.w3.org/1999/xlink" x="0px" y="0px" viewBox="0 0 256 256" enable-background="new 0 0 256 256" xml:space="preserve">
<metadata> Svg Vector Icons : http://www.onlinewebfonts.com/icon </metadata>
<g><g><g><path fill="#000000" d="M131.6,10.5c-2.1,1.1-2.1,1.2-2.1,18.8v16.9l1.2,1.1c1.4,1.4,3.5,1.5,5,0.3l1.1-0.9l0.1-17l0.1-17l-1.4-1.4C134.2,9.8,133.2,9.6,131.6,10.5z"/><path fill="#000000" d="M47.7,46.4c-0.8,0.8-1.2,1.7-1.2,2.7c0,1.4,1.2,2.8,12.1,13.6c10.6,10.6,12.2,12.1,13.5,12.1c1.9,0,3.4-1.3,3.8-3.2c0.3-1.6,0.1-1.9-12-14C50.5,44.1,50.2,43.9,47.7,46.4z"/><path fill="#000000" d="M199.9,57.5c-10.1,10.2-12.3,12.5-12.3,13.6c0,1.9,2,3.7,3.9,3.7c1.4,0,2.8-1.2,13.6-12.1c10.9-10.8,12.1-12.2,12.1-13.6c0-2-1.8-3.9-3.7-3.9C212.4,45.2,210,47.3,199.9,57.5z"/><path fill="#000000" d="M124.2,61.8c-30.5,3.7-54.3,25.5-60.8,55.8c-1.2,5.8-1.2,21.4,0,27.1c6.4,29.1,28.6,50.5,57.4,55.1c5.9,1,16.4,0.9,22.3,0c25.3-4.2,46.7-22.7,54.7-47c2.5-7.8,3.3-12.9,3.3-21.6c0-19.4-6.6-35.3-20.4-49.1c-8.2-8.2-15.8-13-26.6-16.8C145.7,62.3,132.8,60.8,124.2,61.8z M144.2,70.2c11.6,2.6,21.7,7.9,30.1,15.9c12.1,11.4,18.6,25.8,19.3,42.3c0.4,10.9-1.3,19.8-5.8,29.2c-3.5,7.2-6.7,11.8-12.4,17.5c-8.9,8.9-18.6,14.2-31.3,17c-6.3,1.4-17.5,1.6-23.9,0.3c-22.3-4.4-40.6-20.4-47.5-41.5c-2.4-7.4-3-11.3-3-19.4c0-13.5,3-23.8,10.4-34.9c9.9-14.8,25.4-24.3,44.3-27.2C127.6,68.8,140.8,69.4,144.2,70.2z"/><path fill="#000000" d="M11.3,130.5c-2,2-1.7,4.4,0.7,6c1,0.7,3.4,0.7,17.9,0.6l16.8-0.1l0.9-1.1c1.2-1.5,1.1-3.7-0.3-5l-1.1-1.2h-17C13,129.5,12.2,129.5,11.3,130.5z"/><path fill="#000000" d="M208.8,130.5c-1.5,1.2-1.7,3.6-0.3,5.2l0.9,1.1l16.7,0.1c11.2,0.1,17.1,0,17.7-0.4c2.5-1.3,2.9-4.2,1-6.2c-0.9-0.9-1.7-1-17.8-1C210.7,129.5,210.1,129.5,208.8,130.5z"/><path fill="#000000" d="M58.6,195.9c-11.3,11.3-12.1,12.2-12.1,13.8c0,1.3,0.3,2,1.2,2.7c2.7,2.1,2.9,2,16.1-11.3c6.7-6.8,12.2-12.7,12.2-13.1c0-1.2-1.3-3.5-2.1-3.9C71.4,183.2,70.9,183.5,58.6,195.9z"/><path fill="#000000" d="M188.8,185c-1.3,1.3-1.5,2.6-0.5,4.4c0.4,0.7,5.8,6.4,12.1,12.6c10.1,10.1,11.5,11.3,12.9,11.3c2,0,3.9-1.8,3.9-3.9c0-1.4-1.2-2.8-12.1-13.6c-10.8-10.8-12.2-12.1-13.6-12.1C190.5,183.8,189.5,184.2,188.8,185z"/><path fill="#000000" d="M130.5,208.9c-1,1.2-1,1.8-1,18.1c0,16.2,0,16.9,1,17.8c2,2,4.9,1.5,6.2-1c0.3-0.6,0.5-6.4,0.4-17.7l-0.1-16.7l-1.1-0.9C134,207.2,131.7,207.4,130.5,208.9z"/></g></g></g>
</svg>